<svg xmlns="http://www.w3.org/2000/svg" viewBox="0 0 100 100">
  <defs>
    <linearGradient id="edge-gradient" x1="0%" y1="0%" x2="100%" y2="100%">
      <stop offset="0%" style="stop-color:#0078D4"/>
      <stop offset="100%" style="stop-color:#0D47A1"/>
    </linearGradient>
  </defs>
  <path fill="url(#edge-gradient)" d="M50 5C25.2 5 5 25.2 5 50s20.2 45 45 45 45-20.2 45-45S74.8 5 50 5zm0 70c-13.8 0-25-11.2-25-25s11.2-25 25-25 25 11.2 25 25-11.2 25-25 25z"/>
  <path fill="#fff" d="M50 25c-13.8 0-25 11.2-25 25s11.2 25 25 25 25-11.2 25-25-11.2-25-25-25zm0 40c-8.3 0-15-6.7-15-15s6.7-15 15-15 15 6.7 15 15-6.7 15-15 15z"/>
  <circle cx="50" cy="50" r="8" fill="url(#edge-gradient)"/>
</svg> 