<svg xmlns="http://www.w3.org/2000/svg" viewBox="0 0 100 100">
  <defs>
    <radialGradient id="firefox-gradient" cx="50%" cy="50%" r="50%" fx="50%" fy="50%">
      <stop offset="0%" style="stop-color:#FF9500"/>
      <stop offset="100%" style="stop-color:#FF0039"/>
    </radialGradient>
  </defs>
  <path fill="url(#firefox-gradient)" d="M95 50c0 24.9-20.1 45-45 45S5 74.9 5 50 25.1 5 50 5s45 20.1 45 45z"/>
  <path fill="#fff" d="M50 15c-19.3 0-35 15.7-35 35s15.7 35 35 35 35-15.7 35-35S69.3 15 50 15zm0 60c-13.8 0-25-11.2-25-25s11.2-25 25-25 25 11.2 25 25-11.2 25-25 25z"/>
  <path fill="url(#firefox-gradient)" d="M78 50c0 15.5-12.5 28-28 28S22 65.5 22 50s12.5-28 28-28 28 12.5 28 28zm-48 0c0 11 9 20 20 20s20-9 20-20-9-20-20-20-20 9-20 20z"/>
  <circle cx="50" cy="50" r="10" fill="#fff"/>
</svg> 